<svg width="168" height="88" viewBox="0 0 168 88" fill="none" xmlns="http://www.w3.org/2000/svg">
    <g clip-path="url(#clip0)">
        <rect width="168" height="88" rx="4" fill="#F2F7FF" />
        <path d="M10.3118 22L11.152 19.4893H14.9801L15.8253 22H17.794L14.2045 11.8182H11.9276L8.34304 22H10.3118ZM11.6491 18.0078L13.0263 13.9062H13.1058L14.483 18.0078H11.6491ZM20.8553 11.8182H19.0556V22H20.8553V11.8182ZM24.5057 11.8182H22.706V22H24.5057V11.8182ZM31.2161 22L32.0563 19.4893H35.8844L36.7296 22H38.6983L35.1088 11.8182H32.8319L29.2473 22H31.2161ZM32.5534 18.0078L33.9306 13.9062H34.0101L35.3873 18.0078H32.5534ZM41.7596 17.5256C41.7596 16.4219 42.4258 15.7855 43.3754 15.7855C44.305 15.7855 44.8619 16.397 44.8619 17.4162V22H46.6616V17.1378C46.6665 15.3082 45.6225 14.2642 44.0465 14.2642C42.9031 14.2642 42.1175 14.8111 41.7695 15.6612H41.68V14.3636H39.9599V22H41.7596V17.5256ZM50.6886 22.1541C51.8867 22.1541 52.6026 21.5923 52.9308 20.951H52.9904V22H54.7205V16.8892C54.7205 14.8707 53.0749 14.2642 51.6183 14.2642C50.0124 14.2642 48.7795 14.9801 48.3817 16.3722L50.0621 16.6108C50.2411 16.0888 50.7482 15.6413 51.6282 15.6413C52.4634 15.6413 52.9208 16.0689 52.9208 16.8196V16.8494C52.9208 17.3665 52.3789 17.3913 51.0316 17.5355C49.5501 17.6946 48.1332 18.1371 48.1332 19.8572C48.1332 21.3587 49.2319 22.1541 50.6886 22.1541ZM51.1559 20.8317C50.4052 20.8317 49.8683 20.4886 49.8683 19.8274C49.8683 19.1364 50.4698 18.848 51.2752 18.7337C51.7475 18.669 52.6921 18.5497 52.9258 18.3608V19.2607C52.9258 20.1108 52.2397 20.8317 51.1559 20.8317ZM58.3299 11.8182H56.5302V22H58.3299V11.8182ZM61.2992 24.8636C62.7012 24.8636 63.5115 24.1428 63.9441 22.9247L67.0115 14.3736L65.0875 14.3636L63.3226 20.1307H63.2431L61.4831 14.3636H59.574L62.3432 22.1591L62.1891 22.5717C61.856 23.4418 61.329 23.5014 60.5435 23.2727L60.1259 24.6747C60.3695 24.7741 60.807 24.8636 61.2992 24.8636ZM72.0739 14.3636H70.5675V12.5341H68.7678V14.3636H67.6839V15.7557H68.7678V20.0014C68.7578 21.4382 69.8018 22.1442 71.1541 22.1044C71.6662 22.0895 72.0192 21.9901 72.2131 21.9254L71.9098 20.5185C71.8104 20.5433 71.6065 20.5881 71.3828 20.5881C70.9304 20.5881 70.5675 20.429 70.5675 19.7031V15.7557H72.0739V14.3636ZM73.579 22H75.3787V14.3636H73.579V22ZM74.4838 13.2798C75.0556 13.2798 75.5229 12.8423 75.5229 12.3054C75.5229 11.7635 75.0556 11.326 74.4838 11.326C73.9071 11.326 73.4398 11.7635 73.4398 12.3054C73.4398 12.8423 73.9071 13.2798 74.4838 13.2798ZM80.5604 22.1491C82.4794 22.1491 83.7024 21.0107 83.8317 19.3899H82.1115C81.9574 20.2102 81.3658 20.6825 80.5753 20.6825C79.4517 20.6825 78.7259 19.7429 78.7259 18.1818C78.7259 16.6406 79.4666 15.7159 80.5753 15.7159C81.4403 15.7159 81.9723 16.2727 82.1115 17.0085H83.8317C83.7074 15.353 82.4148 14.2642 80.5504 14.2642C78.3132 14.2642 76.9013 15.88 76.9013 18.2116C76.9013 20.5234 78.2784 22.1491 80.5604 22.1491ZM91.345 16.3821C91.0964 15.0895 90.0623 14.2642 88.2725 14.2642C86.4331 14.2642 85.1802 15.169 85.1852 16.581C85.1802 17.6946 85.8663 18.4304 87.3329 18.7337L88.6355 19.0071C89.3365 19.1612 89.6646 19.4446 89.6646 19.8771C89.6646 20.3991 89.0978 20.7919 88.2427 20.7919C87.4174 20.7919 86.8805 20.4339 86.7264 19.7479L84.9714 19.9169C85.1951 21.3189 86.3734 22.1491 88.2477 22.1491C90.1568 22.1491 91.5041 21.1598 91.5091 19.7131C91.5041 18.6243 90.8031 17.9581 89.3613 17.6449L88.0588 17.3665C87.2832 17.1925 86.975 16.924 86.9799 16.4815C86.975 15.9645 87.5467 15.6065 88.2974 15.6065C89.1277 15.6065 89.5652 16.0589 89.7044 16.5611L91.345 16.3821Z" fill="#12263F" />
        <g clip-path="url(#clip1)">
            <path opacity="0.4" d="M164.032 -4.20661L153.456 17.1639C153.721 17.5451 153.958 17.9453 154.165 18.3612C155.216 20.6146 155.328 23.1932 154.478 25.5296C153.627 27.8661 151.884 29.769 149.63 30.8198C147.377 31.8706 144.798 31.9832 142.462 31.1328C140.125 30.2824 138.222 28.5387 137.172 26.2853C136.985 25.859 136.831 25.4193 136.711 24.9699L113.541 19.3378C112.192 20.7995 110.388 21.7616 108.422 22.0675L98.8332 48.4124C100.082 49.915 100.829 51.7708 100.97 53.7195C101.11 55.6682 100.637 57.612 99.6166 59.2782C98.5962 60.9443 97.0799 62.2492 95.2802 63.0098C93.4805 63.7703 91.4879 63.9484 89.5819 63.5189C87.676 63.0895 85.9522 62.0741 84.6527 60.6152C83.3531 59.1563 82.5429 57.3272 82.3356 55.3845C82.1284 53.4417 82.5347 51.4828 83.4973 49.7827C84.46 48.0825 85.9307 46.7264 87.7033 45.9046C88.4432 45.5721 89.2233 45.3373 90.0239 45.2061L99.6127 18.8612C99.0837 18.2461 98.6371 17.5648 98.284 16.8344C97.2332 14.5809 97.1206 12.0024 97.971 9.6659C98.8214 7.32945 100.565 5.42651 102.819 4.37571C105.072 3.32491 107.651 3.21232 109.987 4.06272C112.324 4.91312 114.226 6.65685 115.277 8.9103C115.464 9.33658 115.617 9.77629 115.738 10.2257L138.905 15.8568C140.508 14.1409 142.713 13.1126 145.058 12.9876L155.639 -8.38283C155.373 -8.76373 155.136 -9.16361 154.928 -9.57925C154.06 -11.4058 153.801 -13.4628 154.189 -15.4477C154.577 -17.4325 155.592 -19.2403 157.085 -20.605C158.577 -21.9698 160.469 -22.8195 162.48 -23.029C164.492 -23.2385 166.517 -22.7968 168.259 -21.769C170.001 -20.7411 171.367 -19.1813 172.156 -17.3191C172.945 -15.4569 173.115 -13.3906 172.642 -11.4243C172.169 -9.45802 171.077 -7.69555 169.527 -6.39625C167.977 -5.09695 166.051 -4.32942 164.032 -4.20661Z" fill="#9DA1A6" />
            <path d="M163.219 45.1718L151.89 50.4545C151.139 50.8048 150.558 51.4391 150.274 52.2179C149.991 52.9967 150.028 53.8562 150.379 54.6074L163.585 82.9295C163.936 83.6807 164.57 84.2619 165.349 84.5454C166.128 84.8288 166.987 84.7913 167.738 84.441L179.067 79.1583C179.818 78.808 180.399 78.1737 180.683 77.3949C180.966 76.6161 180.929 75.7566 180.579 75.0054L167.372 46.6833C167.022 45.9321 166.387 45.3509 165.608 45.0674C164.83 44.784 163.97 44.8215 163.219 45.1718ZM180.976 9.30725L169.647 14.59C168.896 14.9402 168.314 15.5746 168.031 16.3534C167.747 17.1322 167.785 17.9917 168.135 18.7429L191.907 69.7227C192.258 70.4738 192.892 71.0551 193.671 71.3385C194.45 71.622 195.309 71.5845 196.06 71.2342L207.389 65.9515C208.14 65.6012 208.722 64.9669 209.005 64.1881C209.289 63.4093 209.251 62.5497 208.901 61.7986L185.128 10.8188C184.778 10.0676 184.144 9.48639 183.365 9.20292C182.586 8.91945 181.727 8.95698 180.976 9.30725ZM124.331 35.7209L113.002 41.0036C112.251 41.3539 111.67 41.9882 111.387 42.767C111.103 43.5458 111.141 44.4054 111.491 45.1565L135.263 96.1363C135.613 96.8875 136.248 97.4687 137.027 97.7522C137.805 98.0357 138.665 97.9981 139.416 97.6479L150.745 92.3651C151.496 92.0149 152.077 91.3805 152.361 90.6017C152.644 89.8229 152.607 88.9634 152.256 88.2122L128.484 37.2324C128.134 36.4813 127.5 35.9 126.721 35.6166C125.942 35.3331 125.082 35.3706 124.331 35.7209ZM109.216 77.2498L97.8872 82.5326C97.136 82.8828 96.5548 83.5171 96.2713 84.296C95.9879 85.0748 96.0254 85.9343 96.3756 86.6855L106.941 109.343C107.291 110.094 107.926 110.676 108.705 110.959C109.483 111.242 110.343 111.205 111.094 110.855L122.423 105.572C123.174 105.222 123.755 104.587 124.039 103.809C124.322 103.03 124.285 102.17 123.934 101.419L113.369 78.7614C113.019 78.0102 112.384 77.429 111.606 77.1455C110.827 76.862 109.967 76.8996 109.216 77.2498Z" fill="#9DA1A6" />
        </g>
    </g>
    <defs>
        <clipPath id="clip0">
            <rect width="168" height="88" rx="4" fill="white" />
        </clipPath>
        <clipPath id="clip1">
            <rect width="112.5" height="100" fill="white" transform="translate(66 21.5446) rotate(-25)" />
        </clipPath>
    </defs>
</svg>
    