<svg width="168" height="88" viewBox="0 0 168 88" fill="none" xmlns="http://www.w3.org/2000/svg">
    <g clip-path="url(#clip0)">
        <rect width="168" height="88" rx="4" fill="#E1FFF6" />
        <g opacity="0.8" clip-path="url(#clip1)">
            <path opacity="0.4" d="M118.384 76.5087C117.705 75.0584 117.143 73.5564 116.703 72.0169C125.63 62.5828 138.296 57.4807 149.072 57.7848C157.057 58.0029 164.585 54.9494 169.356 52.7572L169.623 53.3289C172.315 59.4598 172.729 66.3508 170.789 72.7598L132.802 90.4735C126.438 87.7567 121.303 82.783 118.384 76.5087Z" fill="#00C49F" />
            <path d="M145.766 24.314L139.736 11.3832L128.407 16.6659L137.594 36.3675C143.021 36.6774 161.908 35.777 169.636 53.3207C172.326 59.4556 172.735 66.3499 170.79 72.76L132.803 90.4736C126.438 87.7568 121.303 82.7831 118.384 76.5088C110.17 58.8942 123.059 45.7227 126.23 41.5741L117.078 21.9487L105.75 27.2314L111.703 39.9976C102.817 51.6253 100.442 67.6093 107.055 81.7915C111.307 90.9425 118.824 98.1745 128.133 102.069C129.727 102.718 131.439 103.028 133.16 102.979C134.881 102.929 136.573 102.522 138.128 101.783L176.021 84.1127C177.608 83.3818 179.024 82.3263 180.178 81.0143C181.332 79.7022 182.198 78.1629 182.721 76.4955C185.583 67.1988 184.999 57.1822 181.078 48.2805C174.781 33.9871 160.643 25.1626 145.766 24.314ZM100.276 22.8876L139.927 4.3981C140.678 4.04783 141.259 3.41352 141.543 2.6347C141.826 1.85588 141.789 0.996358 141.439 0.245208L138.797 -5.41921C138.447 -6.17036 137.813 -6.75161 137.034 -7.03507C136.255 -7.31854 135.395 -7.28101 134.644 -6.93074L94.9933 11.5588C94.2422 11.9091 93.6609 12.5434 93.3774 13.3222C93.094 14.101 93.1315 14.9605 93.4818 15.7117L96.1231 21.3761C96.4734 22.1273 97.1077 22.7085 97.8865 22.992C98.6654 23.2754 99.5249 23.2379 100.276 22.8876Z" fill="#00C49F" />
        </g>
        <path d="M17.7195 15.2536C17.4062 12.9915 15.6662 11.679 13.4091 11.679C10.7493 11.679 8.74574 13.6179 8.74574 16.9091C8.74574 20.1953 10.7244 22.1392 13.4091 22.1392C15.8303 22.1392 17.4361 20.5732 17.7195 18.6293L15.8601 18.6193C15.6264 19.8125 14.652 20.4837 13.4339 20.4837C11.7834 20.4837 10.6001 19.2457 10.6001 16.9091C10.6001 14.6122 11.7734 13.3345 13.4389 13.3345C14.6768 13.3345 15.6463 14.0355 15.8601 15.2536H17.7195ZM21.1287 17.5256C21.1287 16.4219 21.8148 15.7855 22.7793 15.7855C23.7239 15.7855 24.2807 16.3871 24.2807 17.4162V22H26.0804V17.1378C26.0804 15.2933 25.0364 14.2642 23.4505 14.2642C22.2772 14.2642 21.5314 14.7962 21.1784 15.6612H21.089V11.8182H19.329V22H21.1287V17.5256ZM31.2956 22.1491C33.0755 22.1491 34.2985 21.2791 34.6167 19.9517L32.9363 19.7628C32.6926 20.4091 32.0961 20.7472 31.3205 20.7472C30.1571 20.7472 29.3865 19.9815 29.3716 18.674H34.6912V18.1222C34.6912 15.4425 33.0804 14.2642 31.2012 14.2642C29.0137 14.2642 27.5868 15.87 27.5868 18.2266C27.5868 20.6229 28.9938 22.1491 31.2956 22.1491ZM29.3766 17.4609C29.4313 16.4865 30.1522 15.6662 31.226 15.6662C32.2601 15.6662 32.9561 16.4219 32.9661 17.4609H29.3766ZM36.2138 22H38.0135V17.3565C38.0135 16.4169 38.6399 15.7805 39.4155 15.7805C40.1761 15.7805 40.6982 16.2926 40.6982 17.0781V22H42.4631V17.2372C42.4631 16.3771 42.9751 15.7805 43.8452 15.7805C44.571 15.7805 45.1477 16.2081 45.1477 17.1527V22H46.9524V16.8743C46.9524 15.169 45.968 14.2642 44.5661 14.2642C43.4574 14.2642 42.6122 14.8111 42.2741 15.6612H42.1946C41.9013 14.7962 41.1605 14.2642 40.1314 14.2642C39.1072 14.2642 38.3416 14.7912 38.0234 15.6612H37.9339V14.3636H36.2138V22ZM48.7782 22H50.5779V14.3636H48.7782V22ZM49.6831 13.2798C50.2548 13.2798 50.7221 12.8423 50.7221 12.3054C50.7221 11.7635 50.2548 11.326 49.6831 11.326C49.1064 11.326 48.639 11.7635 48.639 12.3054C48.639 12.8423 49.1064 13.2798 49.6831 13.2798ZM58.4641 16.3821C58.2156 15.0895 57.1815 14.2642 55.3917 14.2642C53.5522 14.2642 52.2994 15.169 52.3043 16.581C52.2994 17.6946 52.9854 18.4304 54.4521 18.7337L55.7546 19.0071C56.4556 19.1612 56.7837 19.4446 56.7837 19.8771C56.7837 20.3991 56.217 20.7919 55.3619 20.7919C54.5366 20.7919 53.9996 20.4339 53.8455 19.7479L52.0906 19.9169C52.3143 21.3189 53.4925 22.1491 55.3668 22.1491C57.2759 22.1491 58.6232 21.1598 58.6282 19.7131C58.6232 18.6243 57.9222 17.9581 56.4805 17.6449L55.1779 17.3665C54.4023 17.1925 54.0941 16.924 54.0991 16.4815C54.0941 15.9645 54.6658 15.6065 55.4165 15.6065C56.2468 15.6065 56.6843 16.0589 56.8235 16.5611L58.4641 16.3821ZM63.9254 14.3636H62.419V12.5341H60.6193V14.3636H59.5355V15.7557H60.6193V20.0014C60.6094 21.4382 61.6534 22.1442 63.0057 22.1044C63.5178 22.0895 63.8707 21.9901 64.0646 21.9254L63.7614 20.5185C63.6619 20.5433 63.4581 20.5881 63.2344 20.5881C62.782 20.5881 62.419 20.429 62.419 19.7031V15.7557H63.9254V14.3636ZM65.4306 22H67.2303V17.5107C67.2303 16.5412 67.9611 15.8551 68.9505 15.8551C69.2537 15.8551 69.6316 15.9098 69.7857 15.9595V14.304C69.6216 14.2741 69.3382 14.2543 69.1394 14.2543C68.2644 14.2543 67.5336 14.7514 67.2551 15.6364H67.1756V14.3636H65.4306V22ZM72.3324 24.8636C73.7344 24.8636 74.5447 24.1428 74.9773 22.9247L78.0447 14.3736L76.1207 14.3636L74.3558 20.1307H74.2763L72.5163 14.3636H70.6072L73.3764 22.1591L73.2223 22.5717C72.8892 23.4418 72.3622 23.5014 71.5767 23.2727L71.1591 24.6747C71.4027 24.7741 71.8402 24.8636 72.3324 24.8636Z" fill="#12263F" />
    </g>
    <defs>
        <clipPath id="clip0">
            <rect width="168" height="88" rx="4" fill="white" />
        </clipPath>
        <clipPath id="clip1">
            <rect width="81.25" height="100" fill="white" transform="translate(78 19.4828) rotate(-25)" />
        </clipPath>
    </defs>
</svg>
    