<svg width="168" height="88" viewBox="0 0 168 88" fill="none" xmlns="http://www.w3.org/2000/svg">
    <g clip-path="url(#clip0)">
        <rect width="168" height="88" rx="4" fill="#FFF8E1" />
        <path d="M9.00426 11.8182V22H10.7741V14.9901H10.8686L13.6825 21.9702H15.005L17.8189 15.005H17.9134V22H19.6832V11.8182H17.4261L14.4034 19.196H14.2841L11.2614 11.8182H9.00426ZM23.8097 22.1541C25.0078 22.1541 25.7237 21.5923 26.0518 20.951H26.1115V22H27.8416V16.8892C27.8416 14.8707 26.196 14.2642 24.7393 14.2642C23.1335 14.2642 21.9006 14.9801 21.5028 16.3722L23.1832 16.6108C23.3622 16.0888 23.8693 15.6413 24.7493 15.6413C25.5845 15.6413 26.0419 16.0689 26.0419 16.8196V16.8494C26.0419 17.3665 25.5 17.3913 24.1527 17.5355C22.6712 17.6946 21.2543 18.1371 21.2543 19.8572C21.2543 21.3587 22.353 22.1541 23.8097 22.1541ZM24.277 20.8317C23.5263 20.8317 22.9893 20.4886 22.9893 19.8274C22.9893 19.1364 23.5909 18.848 24.3963 18.7337C24.8686 18.669 25.8132 18.5497 26.0469 18.3608V19.2607C26.0469 20.1108 25.3608 20.8317 24.277 20.8317ZM33.4645 14.3636H31.9581V12.5341H30.1584V14.3636H29.0746V15.7557H30.1584V20.0014C30.1484 21.4382 31.1925 22.1442 32.5447 22.1044C33.0568 22.0895 33.4098 21.9901 33.6037 21.9254L33.3004 20.5185C33.201 20.5433 32.9972 20.5881 32.7734 20.5881C32.321 20.5881 31.9581 20.429 31.9581 19.7031V15.7557H33.4645V14.3636ZM36.9334 17.5256C36.9334 16.4219 37.6195 15.7855 38.584 15.7855C39.5286 15.7855 40.0854 16.3871 40.0854 17.4162V22H41.8851V17.1378C41.8851 15.2933 40.8411 14.2642 39.2551 14.2642C38.0819 14.2642 37.3361 14.7962 36.9831 15.6612H36.8936V11.8182H35.1337V22H36.9334V17.5256ZM49.7551 16.3821C49.5066 15.0895 48.4725 14.2642 46.6827 14.2642C44.8432 14.2642 43.5904 15.169 43.5953 16.581C43.5904 17.6946 44.2765 18.4304 45.7431 18.7337L47.0456 19.0071C47.7466 19.1612 48.0748 19.4446 48.0748 19.8771C48.0748 20.3991 47.508 20.7919 46.6529 20.7919C45.8276 20.7919 45.2907 20.4339 45.1365 19.7479L43.3816 19.9169C43.6053 21.3189 44.7836 22.1491 46.6578 22.1491C48.5669 22.1491 49.9142 21.1598 49.9192 19.7131C49.9142 18.6243 49.2132 17.9581 47.7715 17.6449L46.4689 17.3665C45.6934 17.1925 45.3851 16.924 45.3901 16.4815C45.3851 15.9645 45.9569 15.6065 46.7076 15.6065C47.5378 15.6065 47.9753 16.0589 48.1145 16.5611L49.7551 16.3821Z" fill="#12263F" />
        <g opacity="0.8" clip-path="url(#clip1)">
            <path opacity="0.4" d="M148.274 -14.7023C148.826 -13.522 148.885 -12.1713 148.439 -10.9474C147.992 -9.72356 147.077 -8.72678 145.894 -8.17636L109.65 8.68593L123.936 86.5932C124.922 93.4672 120.652 97.4857 117.442 98.9791C113.978 100.591 110.024 100.512 105.989 97.9254L75.279 75.2487L67.1716 79.0206C65.9886 79.571 64.6348 79.63 63.4082 79.1846C62.1815 78.7391 61.1825 77.8257 60.6308 76.6454L56.4707 67.7441C55.919 66.5637 55.8599 65.2131 56.3063 63.9892C56.7528 62.7653 57.6683 61.7686 58.8513 61.2181L73.9937 54.1732C75.0578 53.6795 76.2351 53.4795 77.403 53.5941C78.5709 53.7087 79.6866 54.1336 80.634 54.8247L100.686 69.4492L88.4739 2.25376C88.2151 0.830124 88.4361 -0.638962 89.1026 -1.92399C89.769 -3.20902 90.8433 -4.23762 92.1576 -4.8491L137.573 -25.9788C138.756 -26.5292 140.11 -26.5882 141.337 -26.1428C142.564 -25.6973 143.563 -24.7839 144.114 -23.6036L148.274 -14.7023Z" fill="#FFBB28" />
            <path d="M172.888 40.2345C173.293 40.3815 173.665 40.6066 173.983 40.8971C174.301 41.1876 174.558 41.5377 174.74 41.9274C174.923 42.3171 175.026 42.7388 175.045 43.1683C175.063 43.5979 174.997 44.027 174.85 44.431L172.606 50.5817C172.459 50.9858 172.233 51.357 171.942 51.674C171.651 51.991 171.3 52.2477 170.909 52.4295C170.519 52.6112 170.096 52.7144 169.666 52.7331C169.235 52.7518 168.805 52.6857 168.4 52.5386L155.847 47.9801L151.278 60.5045C151.131 60.9086 150.905 61.2798 150.614 61.5968C150.323 61.9138 149.972 62.1705 149.581 62.3523C149.191 62.534 148.768 62.6372 148.338 62.6559C147.907 62.6746 147.477 62.6085 147.072 62.4614L140.907 60.2227C140.502 60.0757 140.13 59.8506 139.813 59.5601C139.495 59.2696 139.238 58.9195 139.055 58.5298C138.873 58.1401 138.77 57.7184 138.751 57.2889C138.732 56.8593 138.799 56.4302 138.946 56.0262L143.515 43.5017L130.962 38.9432C130.557 38.7962 130.185 38.571 129.867 38.2805C129.55 37.9901 129.292 37.64 129.11 37.2503C128.928 36.8606 128.825 36.4389 128.806 36.0093C128.787 35.5797 128.853 35.1507 129.001 34.7466L131.244 28.5959C131.392 28.1918 131.617 27.8207 131.909 27.5037C132.2 27.1866 132.551 26.9299 132.941 26.7482C133.332 26.5665 133.754 26.4633 134.185 26.4446C134.616 26.4258 135.046 26.4919 135.451 26.639L148.003 31.1976L152.572 18.6731C152.72 18.2691 152.945 17.8979 153.237 17.5809C153.528 17.2638 153.879 17.0071 154.269 16.8254C154.66 16.6437 155.082 16.5405 155.513 16.5218C155.943 16.503 156.373 16.5691 156.778 16.7162L162.943 18.9549C163.348 19.1019 163.72 19.3271 164.038 19.6176C164.356 19.9081 164.613 20.2582 164.795 20.6479C164.977 21.0376 165.081 21.4592 165.099 21.8888C165.118 22.3184 165.052 22.7474 164.904 23.1515L160.336 35.6759L172.888 40.2345Z" fill="#FFBB28" />
        </g>
    </g>
    <defs>
        <clipPath id="clip0">
            <rect width="168" height="88" rx="4" fill="white" />
        </clipPath>
        <clipPath id="clip1">
            <rect width="118.077" height="104.804" fill="white" transform="matrix(0.906675 -0.421831 0.423407 0.90594 34.9766 21.7544)" />
        </clipPath>
    </defs>
</svg>
    