<svg width="168" height="88" viewBox="0 0 168 88" fill="none" xmlns="http://www.w3.org/2000/svg">
    <g clip-path="url(#clip0)">
        <rect width="168" height="88" rx="4" fill="#E1F1FF" />
        <path d="M9.00426 22H10.8487V18.5597H12.7976C15.1491 18.5597 16.4119 17.1477 16.4119 15.1889C16.4119 13.245 15.1641 11.8182 12.8224 11.8182H9.00426V22ZM10.8487 17.0433V13.3594H12.5391C13.9212 13.3594 14.5327 14.1051 14.5327 15.1889C14.5327 16.2727 13.9212 17.0433 12.549 17.0433H10.8487ZM19.7342 17.5256C19.7342 16.4219 20.4203 15.7855 21.3848 15.7855C22.3294 15.7855 22.8862 16.3871 22.8862 17.4162V22H24.6859V17.1378C24.6859 15.2933 23.6419 14.2642 22.0559 14.2642C20.8826 14.2642 20.1369 14.7962 19.7839 15.6612H19.6944V11.8182H17.9345V22H19.7342V17.5256ZM27.3656 24.8636C28.7676 24.8636 29.5779 24.1428 30.0105 22.9247L33.0779 14.3736L31.1539 14.3636L29.389 20.1307H29.3095L27.5495 14.3636H25.6404L28.4096 22.1591L28.2555 22.5717C27.9224 23.4418 27.3954 23.5014 26.6099 23.2727L26.1923 24.6747C26.4359 24.7741 26.8734 24.8636 27.3656 24.8636ZM40.3626 16.3821C40.114 15.0895 39.0799 14.2642 37.2901 14.2642C35.4506 14.2642 34.1978 15.169 34.2028 16.581C34.1978 17.6946 34.8839 18.4304 36.3505 18.7337L37.6531 19.0071C38.354 19.1612 38.6822 19.4446 38.6822 19.8771C38.6822 20.3991 38.1154 20.7919 37.2603 20.7919C36.435 20.7919 35.8981 20.4339 35.744 19.7479L33.989 19.9169C34.2127 21.3189 35.391 22.1491 37.2653 22.1491C39.1744 22.1491 40.5217 21.1598 40.5266 19.7131C40.5217 18.6243 39.8207 17.9581 38.3789 17.6449L37.0763 17.3665C36.3008 17.1925 35.9925 16.924 35.9975 16.4815C35.9925 15.9645 36.5643 15.6065 37.315 15.6065C38.1452 15.6065 38.5827 16.0589 38.7219 16.5611L40.3626 16.3821ZM42.0107 22H43.8104V14.3636H42.0107V22ZM42.9155 13.2798C43.4872 13.2798 43.9545 12.8423 43.9545 12.3054C43.9545 11.7635 43.4872 11.326 42.9155 11.326C42.3388 11.326 41.8714 11.7635 41.8714 12.3054C41.8714 12.8423 42.3388 13.2798 42.9155 13.2798ZM48.992 22.1491C50.911 22.1491 52.1341 21.0107 52.2633 19.3899H50.5431C50.389 20.2102 49.7974 20.6825 49.0069 20.6825C47.8833 20.6825 47.1575 19.7429 47.1575 18.1818C47.1575 16.6406 47.8983 15.7159 49.0069 15.7159C49.872 15.7159 50.4039 16.2727 50.5431 17.0085H52.2633C52.139 15.353 50.8464 14.2642 48.9821 14.2642C46.7449 14.2642 45.3329 15.88 45.3329 18.2116C45.3329 20.5234 46.71 22.1491 48.992 22.1491ZM59.7766 16.3821C59.5281 15.0895 58.494 14.2642 56.7042 14.2642C54.8647 14.2642 53.6119 15.169 53.6168 16.581C53.6119 17.6946 54.2979 18.4304 55.7646 18.7337L57.0671 19.0071C57.7681 19.1612 58.0962 19.4446 58.0962 19.8771C58.0962 20.3991 57.5295 20.7919 56.6744 20.7919C55.8491 20.7919 55.3121 20.4339 55.158 19.7479L53.4031 19.9169C53.6268 21.3189 54.805 22.1491 56.6793 22.1491C58.5884 22.1491 59.9357 21.1598 59.9407 19.7131C59.9357 18.6243 59.2347 17.9581 57.793 17.6449L56.4904 17.3665C55.7148 17.1925 55.4066 16.924 55.4116 16.4815C55.4066 15.9645 55.9783 15.6065 56.729 15.6065C57.5593 15.6065 57.9968 16.0589 58.136 16.5611L59.7766 16.3821Z" fill="#12263F" />
        <g opacity="0.8" clip-path="url(#clip1)">
            <path opacity="0.4" d="M156.717 -14.1921C152.544 -15.7098 147.882 -15.1778 143.116 -12.9552C136.255 -9.75626 129.197 -2.98954 123.019 6.14478C120.437 9.99249 118.135 14.0213 116.132 18.1998C113.348 23.9574 110.702 30.3021 108.517 38.9339C111.99 41.7117 115.711 44.1666 119.631 46.2681C121.572 36.988 124.84 28.0361 129.334 19.6883C131.445 15.7846 133.903 12.0795 136.681 8.61825C146.24 -3.23831 151.962 -2.61824 152.439 -2.44461C154.916 -1.54304 157.673 5.23184 157.459 16.1118C161.627 18.1235 165.644 20.4336 169.479 23.0239C171.415 4.43264 166.896 -10.4889 156.717 -14.1921ZM146.23 55.9202C144.119 59.8239 141.66 63.5291 138.884 66.9906C129.324 78.8472 123.602 78.2271 123.125 78.0535C120.648 77.1519 117.892 70.3774 118.105 59.4971C113.937 57.4854 109.92 55.1753 106.085 52.585C104.149 71.1762 108.668 86.0978 118.847 89.8006C123.02 91.3187 127.682 90.7867 132.449 88.5641C139.309 85.3652 146.367 78.5984 152.545 69.4641C155.127 65.6164 157.429 61.5876 159.432 57.4091C162.217 51.6483 164.865 45.2952 167.047 36.675C163.574 33.8968 159.854 31.4418 155.933 29.3404C153.992 38.6205 150.724 47.5724 146.23 55.9202Z" fill="#0088FE" />
            <path d="M140.423 43.4669C141.543 42.9444 142.483 42.1015 143.124 41.0448C143.765 39.9882 144.078 38.7652 144.024 37.5305C143.97 36.2958 143.551 35.1049 142.82 34.1083C142.089 33.1118 141.079 32.3543 139.918 31.9317C138.756 31.5092 137.496 31.4404 136.295 31.7343C135.095 32.0281 134.008 32.6713 133.174 33.5825C132.339 34.4937 131.793 35.632 131.605 36.8535C131.417 38.075 131.595 39.3248 132.118 40.4449C132.464 41.1888 132.954 41.8571 133.559 42.4116C134.164 42.9661 134.873 43.3959 135.644 43.6766C136.415 43.9572 137.234 44.0831 138.054 44.0471C138.874 44.0112 139.679 43.814 140.423 43.4669ZM119.631 46.2681C115.711 44.1667 111.991 41.7117 108.517 38.9338C100.044 32.1045 96.6266 25.6379 97.5283 23.1613C97.7023 22.6841 100.905 17.9012 116.132 18.1999C118.135 14.0214 120.437 9.99256 123.019 6.14468C112.05 5.00706 102.329 6.0641 95.47 9.26229C90.7023 11.4855 87.2997 14.7133 85.7792 18.8868C82.0733 29.0645 90.599 42.118 106.085 52.5852C109.92 55.1756 113.938 57.4856 118.106 59.4971C126.117 63.3692 132.693 65.4254 138.884 66.9909C141.661 63.5294 144.12 59.8242 146.23 55.9204C136.946 53.9977 127.988 50.7468 119.631 46.2681ZM169.48 23.0238C165.644 20.4334 161.627 18.1234 157.459 16.1119C149.435 12.2344 142.863 10.1813 136.681 8.61808C133.904 12.0795 131.445 15.7846 129.335 19.6883C138.619 21.6112 147.577 24.862 155.933 29.3406C159.854 31.4418 163.574 33.8969 167.048 36.6752C175.52 43.5042 178.938 49.9708 178.037 52.4477C177.863 52.9249 174.66 57.7078 159.433 57.4092C157.429 61.5877 155.128 65.6165 152.546 69.4643C163.515 70.602 173.236 69.5449 180.095 66.3467C184.863 64.1235 188.265 60.8957 189.786 56.7219C193.492 46.5445 184.966 33.4911 169.48 23.0238Z" fill="#0088FE" />
        </g>
    </g>
    <defs>
        <clipPath id="clip0">
            <rect width="168" height="88" rx="4" fill="white" />
        </clipPath>
        <clipPath id="clip1">
            <rect width="87.5" height="100" fill="white" transform="translate(77 10.9791) rotate(-25)" />
        </clipPath>
    </defs>
</svg>
    