<svg xmlns="http://www.w3.org/2000/svg" width="256" height="256" viewBox="0 0 256 256" fill="none">
<path fill-rule="evenodd" clip-rule="evenodd" d="M167.335 68.1121L187.299 33.5368L211.995 47.7968L192.035 82.3721L167.335 68.1121ZM187.857 214.432L205.721 233.941L184.364 252L166.5 232.288C154.905 238.576 141.906 241.825 128.717 241.733C87.648 241.733 52.9487 211.973 52.9487 165.965C52.9487 119.762 87.6687 89.9857 128.717 89.9857C169.583 89.9857 204.282 119.746 204.282 165.965C204.654 183.543 198.841 200.694 187.857 214.424V214.432ZM128.717 121.61C108.389 121.61 86.6229 135.37 86.6229 165.758C86.6229 196.146 108.393 209.699 128.717 209.699C133.747 209.678 138.74 208.84 143.502 207.219L122.145 183.808L143.708 165.741L165.061 189.173C168.888 181.976 170.798 173.915 170.608 165.766C170.608 135.37 148.842 121.61 128.717 121.61ZM113.837 4H142.357V61.04H113.837V4ZM44 47.0817L68.6967 32.8217L88.6565 67.3971L63.9599 81.6571L44 47.0817Z" fill="#2E005B"/>
</svg>